# xmcd
#
# Track frame offsets: 
#        150
#        15131
#        29803
#        46643
#        63279
#        75070
#        88837
#        101648
#        113347
#        126217
#
# Disc length: 1857 seconds
#
# Revision: 0
# Processed by: cddbd v1.5.2PL0 Copyright (c) Steve Scherf et al.
# Submitted via: ExactAudioCopy v0.99pb4
#
DISCID=66073f0a
DTITLE=Frizzell and West - In Session
DYEAR=1983
DGENRE=Country
TTITLE0=Pleasure Island
TTITLE1=Silent Partners
TTITLE2=The Wild Side of Life - It Wasn't God Who Made Honky Tonk Ange
TTITLE2=ls (Medley)
TTITLE3=You're My Better Half
TTITLE4=Straight From the Heart
TTITLE5=You Still Do It For Me
TTITLE6=Forever and Always
TTITLE7=Confidential
TTITLE8=I Just Fall In Love Again
TTITLE9=Betcha Can't Cry Just One
EXTD=
EXTT0=
EXTT1=
EXTT2=
EXTT3=
EXTT4=
EXTT5=
EXTT6=
EXTT7=
EXTT8=
EXTT9=
PLAYORDER=
